<svg width="100" height="100" viewBox="0 0 100 100" fill="none" xmlns="http://www.w3.org/2000/svg">
<path d="M61.425 4.51246C61.8357 4.51172 62.2425 4.59194 62.6221 4.74851C63.0017 4.90508 63.3468 5.13494 63.6375 5.42496L94.575 36.3625C95.1609 36.9485 95.49 37.7432 95.49 38.5718C95.49 39.4005 95.1609 40.1952 94.575 40.7812C91.575 43.7812 87.875 44.4562 85.1813 44.4562C84.075 44.4562 83.0875 44.3437 82.3063 44.2125L62.7188 63.8C63.2344 65.8775 63.569 67.9959 63.7188 70.1312C64.0063 74.5187 63.5188 80.675 59.2188 84.975C58.6328 85.5608 57.838 85.8899 57.0094 85.8899C56.1808 85.8899 55.386 85.5608 54.8 84.975L37.1188 67.3L17.2313 87.1875C16.0125 88.4062 9.61253 92.825 8.39378 91.6062C7.17503 90.3875 11.5938 83.9812 12.8125 82.7687L32.7 62.8812L15.025 45.2C14.4392 44.6139 14.1101 43.8192 14.1101 42.9906C14.1101 42.1619 14.4392 41.3672 15.025 40.7812C19.325 36.4812 25.4813 35.9875 29.8688 36.2812C32.0041 36.4308 34.1225 36.7654 36.2 37.2812L55.7875 17.7C55.624 16.7482 55.5404 15.7844 55.5375 14.8187C55.5375 12.1312 56.2125 8.43121 59.2188 5.42496C59.8044 4.84078 60.5978 4.51263 61.425 4.51246ZM62.1875 17.7V17.7125C62.368 18.2623 62.3923 18.8514 62.2577 19.4142C62.123 19.977 61.8348 20.4913 61.425 20.9L39.3313 42.9875C38.9208 43.3962 38.4047 43.6828 37.8407 43.8153C37.2768 43.9477 36.6871 43.9208 36.1375 43.7375H36.125L36.0375 43.7125C35.4429 43.5343 34.8426 43.3759 34.2375 43.2375C32.6653 42.8707 31.0666 42.6283 29.4563 42.5125C26.8188 42.3375 24.2313 42.5625 22.1125 43.45L56.55 77.8812C57.4313 75.7562 57.6563 73.175 57.4813 70.5375C57.3221 68.3045 56.9197 66.0956 56.2813 63.95L56.2563 63.8687C56.0717 63.3183 56.0441 62.7211 56.1766 62.1559C56.3091 61.5907 56.5964 61.0735 57.0063 60.6625L79.1063 38.5687C79.5319 38.1405 80.0723 37.8448 80.6624 37.7173C81.2525 37.5897 81.8669 37.6358 82.4313 37.85L83.0313 37.9875C83.575 38.0937 84.3313 38.2 85.1813 38.2C85.8938 38.2 86.6188 38.1312 87.325 37.95L62.0438 12.675C61.8625 13.3812 61.7938 14.1125 61.7938 14.8187C61.7968 15.7899 61.9271 16.7564 62.1813 17.6937L62.1875 17.7Z" fill="#261B10"/>
</svg>
