<svg width="19" height="329" viewBox="0 0 19 329" fill="none" xmlns="http://www.w3.org/2000/svg">
<path d="M0 325.564H14.5455V328.64H0V325.564Z" fill="#844E8C"/>
<path d="M14.7585 313.533C14.7585 314.651 14.5218 315.612 14.0483 316.417C13.5701 317.217 12.9072 317.832 12.0597 318.263C11.2121 318.689 10.2367 318.902 9.13352 318.902C8.0161 318.902 7.03599 318.687 6.19318 318.256C5.34564 317.821 4.68513 317.203 4.21165 316.402C3.73343 315.602 3.49432 314.651 3.49432 313.547C3.49432 312.596 3.66714 311.762 4.01278 311.047C4.35843 310.332 4.84375 309.767 5.46875 309.35C6.09375 308.933 6.82765 308.704 7.67045 308.661V311.516C7.12595 311.597 6.68797 311.81 6.35653 312.155C6.02036 312.496 5.85227 312.944 5.85227 313.498C5.85227 313.966 5.98011 314.376 6.2358 314.726C6.48674 315.072 6.85369 315.342 7.33665 315.536C7.8196 315.73 8.40436 315.827 9.09091 315.827C9.78693 315.827 10.3788 315.733 10.8665 315.543C11.3542 315.349 11.7259 315.077 11.9815 314.726C12.2372 314.376 12.3651 313.966 12.3651 313.498C12.3651 313.152 12.294 312.842 12.152 312.567C12.0099 312.288 11.804 312.058 11.5341 311.878C11.2595 311.694 10.9304 311.573 10.5469 311.516V308.661C11.3802 308.708 12.1141 308.936 12.7486 309.343C13.3783 309.745 13.8707 310.302 14.2259 311.012C14.581 311.722 14.7585 312.563 14.7585 313.533Z" fill="#844E8C"/>
<path d="M14.7585 301.795C14.7585 302.898 14.5241 303.852 14.0554 304.657C13.5819 305.457 12.9238 306.075 12.081 306.511C11.2334 306.946 10.2509 307.164 9.13352 307.164C8.00663 307.164 7.02178 306.946 6.17898 306.511C5.33144 306.075 4.6733 305.457 4.20455 304.657C3.73106 303.852 3.49432 302.898 3.49432 301.795C3.49432 300.692 3.73106 299.74 4.20455 298.94C4.6733 298.135 5.33144 297.515 6.17898 297.079C7.02178 296.643 8.00663 296.426 9.13352 296.426C10.2509 296.426 11.2334 296.643 12.081 297.079C12.9238 297.515 13.5819 298.135 14.0554 298.94C14.5241 299.74 14.7585 300.692 14.7585 301.795ZM12.4148 301.781C12.4148 301.279 12.2727 300.86 11.9886 300.524C11.6998 300.187 11.3068 299.934 10.8097 299.764C10.3125 299.588 9.74669 299.501 9.11222 299.501C8.47775 299.501 7.91193 299.588 7.41477 299.764C6.91761 299.934 6.52462 300.187 6.2358 300.524C5.94697 300.86 5.80256 301.279 5.80256 301.781C5.80256 302.287 5.94697 302.713 6.2358 303.059C6.52462 303.4 6.91761 303.658 7.41477 303.833C7.91193 304.004 8.47775 304.089 9.11222 304.089C9.74669 304.089 10.3125 304.004 10.8097 303.833C11.3068 303.658 11.6998 303.4 11.9886 303.059C12.2727 302.713 12.4148 302.287 12.4148 301.781Z" fill="#844E8C"/>
<path d="M9.90057 287.462H3.63636V284.437H14.5455V287.342H12.5639V287.455C13.2031 287.702 13.7169 288.111 14.1051 288.684C14.4934 289.252 14.6875 289.946 14.6875 290.765C14.6875 291.494 14.5218 292.136 14.1903 292.69C13.8589 293.244 13.3878 293.677 12.777 293.99C12.1662 294.297 11.4347 294.454 10.5824 294.458H3.63636V291.433H10.0426C10.6866 291.428 11.1956 291.255 11.5696 290.914C11.9437 290.573 12.1307 290.116 12.1307 289.543C12.1307 289.179 12.0478 288.838 11.8821 288.521C11.7116 288.204 11.4607 287.948 11.1293 287.754C10.7978 287.555 10.3883 287.458 9.90057 287.462Z" fill="#844E8C"/>
<path d="M0 278.991H14.5455V282.017H0V278.991Z" fill="#844E8C"/>
<path d="M14.723 272.548C14.723 273.376 14.5099 274.127 14.0838 274.799C13.6529 275.467 13.0208 275.997 12.1875 276.39C11.3494 276.778 10.322 276.972 9.10511 276.972C7.85511 276.972 6.81581 276.771 5.98722 276.369C5.15388 275.966 4.53125 275.431 4.11932 274.764C3.70265 274.091 3.49432 273.355 3.49432 272.555C3.49432 271.944 3.59849 271.435 3.80682 271.028C4.01042 270.616 4.2661 270.284 4.57386 270.034C4.87689 269.778 5.17519 269.584 5.46875 269.451V269.359H0V266.34H14.5455V269.323H12.7983V269.451C13.1013 269.593 13.402 269.794 13.7003 270.055C13.9938 270.311 14.2377 270.644 14.4318 271.056C14.6259 271.463 14.723 271.961 14.723 272.548ZM12.3153 271.589C12.3153 271.101 12.1828 270.689 11.9176 270.353C11.6477 270.012 11.2713 269.752 10.7884 269.572C10.3054 269.387 9.73958 269.295 9.09091 269.295C8.44223 269.295 7.87879 269.385 7.40057 269.565C6.92235 269.745 6.55303 270.005 6.29261 270.346C6.0322 270.687 5.90199 271.101 5.90199 271.589C5.90199 272.086 6.03693 272.505 6.30682 272.846C6.5767 273.187 6.95076 273.445 7.42898 273.62C7.9072 273.795 8.46117 273.883 9.09091 273.883C9.72538 273.883 10.2865 273.795 10.7741 273.62C11.2571 273.44 11.6359 273.182 11.9105 272.846C12.1804 272.505 12.3153 272.086 12.3153 271.589Z" fill="#844E8C"/>
<path d="M14.5455 259.167H0V256.141H5.46875V256.049C5.17519 255.917 4.87689 255.725 4.57386 255.474C4.2661 255.218 4.01042 254.887 3.80682 254.48C3.59849 254.068 3.49432 253.556 3.49432 252.945C3.49432 252.15 3.70265 251.416 4.11932 250.744C4.53125 250.071 5.15388 249.534 5.98722 249.132C6.81581 248.729 7.85511 248.528 9.10511 248.528C10.322 248.528 11.3494 248.724 12.1875 249.117C13.0208 249.506 13.6529 250.036 14.0838 250.708C14.5099 251.376 14.723 252.124 14.723 252.953C14.723 253.54 14.6259 254.039 14.4318 254.451C14.2377 254.858 13.9938 255.192 13.7003 255.453C13.402 255.713 13.1013 255.912 12.7983 256.049V256.184H14.5455V259.167ZM9.09091 256.205C9.73958 256.205 10.3054 256.115 10.7884 255.936C11.2713 255.756 11.6477 255.495 11.9176 255.154C12.1828 254.813 12.3153 254.399 12.3153 253.911C12.3153 253.419 12.1804 253.002 11.9105 252.661C11.6359 252.32 11.2571 252.062 10.7741 251.887C10.2865 251.707 9.72538 251.617 9.09091 251.617C8.46117 251.617 7.9072 251.705 7.42898 251.88C6.95076 252.055 6.5767 252.313 6.30682 252.654C6.03693 252.995 5.90199 253.414 5.90199 253.911C5.90199 254.404 6.0322 254.82 6.29261 255.161C6.55303 255.498 6.92235 255.756 7.40057 255.936C7.87879 256.115 8.44223 256.205 9.09091 256.205Z" fill="#844E8C"/>
<path d="M14.7585 241.537C14.7585 242.66 14.5313 243.626 14.0767 244.435C13.6174 245.24 12.9688 245.86 12.1307 246.296C11.2879 246.732 10.2912 246.949 9.14062 246.949C8.01847 246.949 7.03362 246.732 6.18608 246.296C5.33854 245.86 4.67803 245.247 4.20455 244.456C3.73106 243.661 3.49432 242.728 3.49432 241.658C3.49432 240.938 3.61032 240.268 3.84233 239.648C4.0696 239.023 4.41288 238.479 4.87216 238.015C5.33144 237.546 5.90909 237.181 6.60511 236.921C7.2964 236.661 8.10606 236.53 9.03409 236.53H9.86506V245.742H7.99006V239.378C7.55445 239.378 7.16856 239.473 6.83239 239.662C6.49621 239.852 6.23343 240.115 6.04403 240.451C5.84991 240.782 5.75284 241.168 5.75284 241.608C5.75284 242.068 5.85938 242.475 6.07244 242.83C6.28078 243.18 6.5625 243.455 6.91761 243.654C7.26799 243.853 7.65862 243.955 8.08949 243.959H9.87216C10.4119 243.959 10.8783 243.86 11.2713 243.661C11.6643 243.457 11.9673 243.171 12.1804 242.802C12.3935 242.432 12.5 241.994 12.5 241.488C12.5 241.152 12.4527 240.844 12.358 240.564C12.2633 240.285 12.1212 240.046 11.9318 239.847C11.7424 239.648 11.5104 239.497 11.2358 239.393L11.4205 236.594C12.0928 236.736 12.6799 237.027 13.1818 237.468C13.679 237.903 14.0672 238.467 14.3466 239.158C14.6212 239.845 14.7585 240.638 14.7585 241.537Z" fill="#844E8C"/>
<path d="M14.5455 229.87H0V224.046C0 222.976 0.158617 222.084 0.475852 221.369C0.793087 220.654 1.23343 220.116 1.79688 219.757C2.35559 219.397 2.99953 219.217 3.72869 219.217C4.29688 219.217 4.7964 219.33 5.22727 219.558C5.65341 219.785 6.00379 220.097 6.27841 220.495C6.5483 220.888 6.74006 221.338 6.85369 221.845H6.99574C7.01941 221.291 7.17566 220.772 7.46449 220.289C7.75331 219.802 8.15814 219.406 8.67898 219.103C9.19508 218.8 9.81061 218.649 10.5256 218.649C11.2973 218.649 11.9863 218.84 12.5923 219.224C13.1937 219.603 13.6695 220.164 14.0199 220.907C14.3703 221.65 14.5455 222.567 14.5455 223.656V229.87ZM12.0312 226.795V224.288C12.0312 223.431 11.8679 222.806 11.5412 222.413C11.2098 222.02 10.7694 221.823 10.2202 221.823C9.81771 221.823 9.46259 221.92 9.15483 222.114C8.84706 222.309 8.60559 222.586 8.4304 222.945C8.25521 223.301 8.16761 223.724 8.16761 224.217V226.795H12.0312ZM6.08665 226.795V224.515C6.08665 224.094 6.01326 223.72 5.86648 223.393C5.71496 223.061 5.50189 222.801 5.22727 222.612C4.95265 222.418 4.62358 222.32 4.24006 222.32C3.71449 222.32 3.29072 222.507 2.96875 222.882C2.64678 223.251 2.4858 223.776 2.4858 224.458V226.795H6.08665Z" fill="#844E8C"/>
<path d="M14.5455 216.704H3.63636V213.771H5.53977V213.657C4.86269 213.459 4.35133 213.125 4.00568 212.656C3.6553 212.187 3.48011 211.648 3.48011 211.037C3.48011 210.885 3.48958 210.722 3.50852 210.547C3.52746 210.371 3.5535 210.218 3.58665 210.085H6.27131C6.22869 210.227 6.19081 210.424 6.15767 210.674C6.12453 210.925 6.10795 211.155 6.10795 211.363C6.10795 211.808 6.20502 212.206 6.39915 212.557C6.58854 212.902 6.85369 213.177 7.1946 213.38C7.53551 213.579 7.9285 213.679 8.37358 213.679H14.5455V216.704Z" fill="#844E8C"/>
<path d="M14.7585 204.1C14.7585 205.203 14.5241 206.157 14.0554 206.962C13.5819 207.762 12.9238 208.38 12.081 208.815C11.2334 209.251 10.2509 209.469 9.13352 209.469C8.00663 209.469 7.02178 209.251 6.17898 208.815C5.33144 208.38 4.6733 207.762 4.20455 206.962C3.73106 206.157 3.49432 205.203 3.49432 204.1C3.49432 202.996 3.73106 202.045 4.20455 201.244C4.6733 200.44 5.33144 199.819 6.17898 199.384C7.02178 198.948 8.00663 198.73 9.13352 198.73C10.2509 198.73 11.2334 198.948 12.081 199.384C12.9238 199.819 13.5819 200.44 14.0554 201.244C14.5241 202.045 14.7585 202.996 14.7585 204.1ZM12.4148 204.085C12.4148 203.583 12.2727 203.164 11.9886 202.828C11.6998 202.492 11.3068 202.239 10.8097 202.068C10.3125 201.893 9.74669 201.806 9.11222 201.806C8.47775 201.806 7.91193 201.893 7.41477 202.068C6.91761 202.239 6.52462 202.492 6.2358 202.828C5.94697 203.164 5.80256 203.583 5.80256 204.085C5.80256 204.592 5.94697 205.018 6.2358 205.364C6.52462 205.705 6.91761 205.963 7.41477 206.138C7.91193 206.308 8.47775 206.394 9.11222 206.394C9.74669 206.394 10.3125 206.308 10.8097 206.138C11.3068 205.963 11.6998 205.705 11.9886 205.364C12.2727 205.018 12.4148 204.592 12.4148 204.085Z" fill="#844E8C"/>
<path d="M14.5455 194.884L3.63636 197.853V194.792L10.9659 193.102V193.002L3.63636 191.241V188.237L10.9233 186.447V186.355L3.63636 184.693V181.639L14.5455 184.6V187.803L7.68466 189.678V189.813L14.5455 191.688V194.884Z" fill="#844E8C"/>
<path d="M8.23864 176.999H14.5455V180.025H3.63636V177.141H5.56108V177.013C4.92661 176.772 4.42472 176.367 4.0554 175.799C3.68134 175.231 3.49432 174.542 3.49432 173.732C3.49432 172.974 3.66004 172.314 3.99148 171.751C4.32292 171.187 4.7964 170.749 5.41193 170.437C6.02273 170.124 6.75189 169.968 7.59943 169.968H14.5455V172.993H8.1392C7.47159 172.989 6.95076 173.159 6.5767 173.505C6.19792 173.85 6.00852 174.326 6.00852 174.932C6.00852 175.34 6.09612 175.699 6.27131 176.012C6.4465 176.32 6.70218 176.561 7.03835 176.736C7.36979 176.907 7.76989 176.994 8.23864 176.999Z" fill="#844E8C"/>
<path d="M12.5568 164.295L13.3381 164.373C13.9631 164.435 14.5857 164.553 15.206 164.728C15.831 164.899 16.3968 165.079 16.9034 165.268C17.41 165.453 17.8078 165.602 18.0966 165.715V167.676C17.8172 167.605 17.4266 167.507 16.9247 167.384C16.4276 167.261 15.8688 167.145 15.2486 167.036C14.6283 166.927 13.9962 166.859 13.3523 166.83L12.5568 166.795V164.295Z" fill="#844E8C"/>
<path d="M0 154.451H14.5455V157.526H0V154.451Z" fill="#844E8C"/>
<path d="M14.7585 142.42C14.7585 143.537 14.5218 144.498 14.0483 145.303C13.5701 146.104 12.9072 146.719 12.0597 147.15C11.2121 147.576 10.2367 147.789 9.13352 147.789C8.0161 147.789 7.03599 147.574 6.19318 147.143C5.34564 146.707 4.68513 146.089 4.21165 145.289C3.73343 144.489 3.49432 143.537 3.49432 142.434C3.49432 141.482 3.66714 140.649 4.01278 139.934C4.35843 139.219 4.84375 138.653 5.46875 138.237C6.09375 137.82 6.82765 137.59 7.67045 137.548V140.403C7.12595 140.483 6.68797 140.696 6.35653 141.042C6.02036 141.383 5.85227 141.83 5.85227 142.384C5.85227 142.853 5.98011 143.263 6.2358 143.613C6.48674 143.959 6.85369 144.229 7.33665 144.423C7.8196 144.617 8.40436 144.714 9.09091 144.714C9.78693 144.714 10.3788 144.619 10.8665 144.43C11.3542 144.236 11.7259 143.963 11.9815 143.613C12.2372 143.263 12.3651 142.853 12.3651 142.384C12.3651 142.039 12.294 141.729 12.152 141.454C12.0099 141.175 11.804 140.945 11.5341 140.765C11.2595 140.58 10.9304 140.46 10.5469 140.403V137.548C11.3802 137.595 12.1141 137.822 12.7486 138.23C13.3783 138.632 13.8707 139.188 14.2259 139.899C14.581 140.609 14.7585 141.449 14.7585 142.42Z" fill="#844E8C"/>
<path d="M14.7585 130.682C14.7585 131.785 14.5241 132.739 14.0554 133.544C13.5819 134.344 12.9238 134.962 12.081 135.398C11.2334 135.833 10.2509 136.051 9.13352 136.051C8.00663 136.051 7.02178 135.833 6.17898 135.398C5.33144 134.962 4.6733 134.344 4.20455 133.544C3.73106 132.739 3.49432 131.785 3.49432 130.682C3.49432 129.578 3.73106 128.627 4.20455 127.826C4.6733 127.022 5.33144 126.401 6.17898 125.966C7.02178 125.53 8.00663 125.312 9.13352 125.312C10.2509 125.312 11.2334 125.53 12.081 125.966C12.9238 126.401 13.5819 127.022 14.0554 127.826C14.5241 128.627 14.7585 129.578 14.7585 130.682ZM12.4148 130.667C12.4148 130.166 12.2727 129.746 11.9886 129.41C11.6998 129.074 11.3068 128.821 10.8097 128.65C10.3125 128.475 9.74669 128.388 9.11222 128.388C8.47775 128.388 7.91193 128.475 7.41477 128.65C6.91761 128.821 6.52462 129.074 6.2358 129.41C5.94697 129.746 5.80256 130.166 5.80256 130.667C5.80256 131.174 5.94697 131.6 6.2358 131.946C6.52462 132.287 6.91761 132.545 7.41477 132.72C7.91193 132.89 8.47775 132.976 9.11222 132.976C9.74669 132.976 10.3125 132.89 10.8097 132.72C11.3068 132.545 11.6998 132.287 11.9886 131.946C12.2727 131.6 12.4148 131.174 12.4148 130.667Z" fill="#844E8C"/>
<path d="M9.90057 116.349H3.63636V113.324H14.5455V116.228H12.5639V116.342C13.2031 116.588 13.7169 116.998 14.1051 117.571C14.4934 118.139 14.6875 118.833 14.6875 119.652C14.6875 120.381 14.5218 121.023 14.1903 121.576C13.8589 122.13 13.3878 122.564 12.777 122.876C12.1662 123.184 11.4347 123.34 10.5824 123.345H3.63636V120.319H10.0426C10.6866 120.315 11.1956 120.142 11.5696 119.801C11.9437 119.46 12.1307 119.003 12.1307 118.43C12.1307 118.066 12.0478 117.725 11.8821 117.407C11.7116 117.09 11.4607 116.835 11.1293 116.64C10.7978 116.442 10.3883 116.344 9.90057 116.349Z" fill="#844E8C"/>
<path d="M0 107.878H14.5455V110.904H0V107.878Z" fill="#844E8C"/>
<path d="M14.723 101.434C14.723 102.263 14.5099 103.014 14.0838 103.686C13.6529 104.353 13.0208 104.884 12.1875 105.277C11.3494 105.665 10.322 105.859 9.10511 105.859C7.85511 105.859 6.81581 105.658 5.98722 105.255C5.15388 104.853 4.53125 104.318 4.11932 103.65C3.70265 102.978 3.49432 102.242 3.49432 101.442C3.49432 100.831 3.59849 100.322 3.80682 99.9146C4.01042 99.5026 4.2661 99.1712 4.57386 98.9202C4.87689 98.6646 5.17519 98.4704 5.46875 98.3379V98.2455H0V95.2271H14.5455V98.21H12.7983V98.3379C13.1013 98.4799 13.402 98.6811 13.7003 98.9416C13.9938 99.1972 14.2377 99.531 14.4318 99.943C14.6259 100.35 14.723 100.847 14.723 101.434ZM12.3153 100.476C12.3153 99.988 12.1828 99.576 11.9176 99.2398C11.6477 98.8989 11.2713 98.6385 10.7884 98.4586C10.3054 98.2739 9.73958 98.1816 9.09091 98.1816C8.44223 98.1816 7.87879 98.2716 7.40057 98.4515C6.92235 98.6314 6.55303 98.8918 6.29261 99.2327C6.0322 99.5737 5.90199 99.988 5.90199 100.476C5.90199 100.973 6.03693 101.392 6.30682 101.733C6.5767 102.074 6.95076 102.332 7.42898 102.507C7.9072 102.682 8.46117 102.77 9.09091 102.77C9.72538 102.77 10.2865 102.682 10.7741 102.507C11.2571 102.327 11.6359 102.069 11.9105 101.733C12.1804 101.392 12.3153 100.973 12.3153 100.476Z" fill="#844E8C"/>
<path d="M14.5455 88.0538H0V85.0282H5.46875V84.9359C5.17519 84.8033 4.87689 84.6115 4.57386 84.3606C4.2661 84.1049 4.01042 83.7735 3.80682 83.3663C3.59849 82.9543 3.49432 82.443 3.49432 81.8322C3.49432 81.0367 3.70265 80.3028 4.11932 79.6305C4.53125 78.9581 5.15388 78.4207 5.98722 78.0183C6.81581 77.6158 7.85511 77.4146 9.10511 77.4146C10.322 77.4146 11.3494 77.6111 12.1875 78.0041C13.0208 78.3923 13.6529 78.9226 14.0838 79.595C14.5099 80.2626 14.723 81.0107 14.723 81.8393C14.723 82.4264 14.6259 82.9259 14.4318 83.3379C14.2377 83.7451 13.9938 84.0789 13.7003 84.3393C13.402 84.5997 13.1013 84.7986 12.7983 84.9359V85.0708H14.5455V88.0538ZM9.09091 85.0921C9.73958 85.0921 10.3054 85.0022 10.7884 84.8222C11.2713 84.6423 11.6477 84.3819 11.9176 84.041C12.1828 83.7001 12.3153 83.2858 12.3153 82.7981C12.3153 82.3057 12.1804 81.889 11.9105 81.5481C11.6359 81.2072 11.2571 80.9491 10.7741 80.7739C10.2865 80.594 9.72538 80.5041 9.09091 80.5041C8.46117 80.5041 7.9072 80.5916 7.42898 80.7668C6.95076 80.942 6.5767 81.2001 6.30682 81.541C6.03693 81.8819 5.90199 82.3009 5.90199 82.7981C5.90199 83.2905 6.0322 83.7072 6.29261 84.0481C6.55303 84.3843 6.92235 84.6423 7.40057 84.8222C7.87879 85.0022 8.44223 85.0921 9.09091 85.0921Z" fill="#844E8C"/>
<path d="M14.7585 70.4241C14.7585 71.5463 14.5313 72.5122 14.0767 73.3219C13.6174 74.1268 12.9688 74.7471 12.1307 75.1827C11.2879 75.6183 10.2912 75.8361 9.14062 75.8361C8.01847 75.8361 7.03362 75.6183 6.18608 75.1827C5.33854 74.7471 4.67803 74.1339 4.20455 73.3432C3.73106 72.5477 3.49432 71.615 3.49432 70.5449C3.49432 69.8252 3.61032 69.1552 3.84233 68.5349C4.0696 67.9099 4.41288 67.3654 4.87216 66.9014C5.33144 66.4327 5.90909 66.0681 6.60511 65.8077C7.2964 65.5473 8.10606 65.417 9.03409 65.417H9.86506V74.6287H7.99006V68.2651C7.55445 68.2651 7.16856 68.3598 6.83239 68.5491C6.49621 68.7385 6.23343 69.0013 6.04403 69.3375C5.84991 69.6689 5.75284 70.0548 5.75284 70.4952C5.75284 70.9545 5.85938 71.3617 6.07244 71.7168C6.28078 72.0671 6.5625 72.3418 6.91761 72.5406C7.26799 72.7395 7.65862 72.8413 8.08949 72.846H9.87216C10.4119 72.846 10.8783 72.7466 11.2713 72.5477C11.6643 72.3441 11.9673 72.0577 12.1804 71.6884C12.3935 71.319 12.5 70.8811 12.5 70.3744C12.5 70.0383 12.4527 69.7305 12.358 69.4511C12.2633 69.1718 12.1212 68.9327 11.9318 68.7338C11.7424 68.5349 11.5104 68.3834 11.2358 68.2793L11.4205 65.481C12.0928 65.623 12.6799 65.9142 13.1818 66.3545C13.679 66.7902 14.0672 67.3536 14.3466 68.0449C14.6212 68.7314 14.7585 69.5245 14.7585 70.4241Z" fill="#844E8C"/>
<path d="M14.5455 58.7569H0V52.933C0 51.863 0.158617 50.9704 0.475852 50.2555C0.793087 49.5405 1.23343 49.0031 1.79688 48.6433C2.35559 48.2834 2.99953 48.1035 3.72869 48.1035C4.29688 48.1035 4.7964 48.2171 5.22727 48.4444C5.65341 48.6717 6.00379 48.9842 6.27841 49.3819C6.5483 49.7749 6.74006 50.2247 6.85369 50.7313H6.99574C7.01941 50.1773 7.17566 49.6589 7.46449 49.1759C7.75331 48.6882 8.15814 48.2929 8.67898 47.9898C9.19508 47.6868 9.81061 47.5353 10.5256 47.5353C11.2973 47.5353 11.9863 47.7271 12.5923 48.1106C13.1937 48.4894 13.6695 49.0505 14.0199 49.7938C14.3703 50.5372 14.5455 51.4534 14.5455 52.5424V58.7569ZM12.0312 55.6816V53.1745C12.0312 52.3175 11.8679 51.6925 11.5412 51.2995C11.2098 50.9065 10.7694 50.71 10.2202 50.71C9.81771 50.71 9.46259 50.8071 9.15483 51.0012C8.84706 51.1953 8.60559 51.4723 8.4304 51.8322C8.25521 52.1873 8.16761 52.6111 8.16761 53.1035V55.6816H12.0312ZM6.08665 55.6816V53.4018C6.08665 52.9804 6.01326 52.6063 5.86648 52.2796C5.71496 51.9482 5.50189 51.6878 5.22727 51.4984C4.95265 51.3042 4.62358 51.2072 4.24006 51.2072C3.71449 51.2072 3.29072 51.3942 2.96875 51.7683C2.64678 52.1376 2.4858 52.6631 2.4858 53.345V55.6816H6.08665Z" fill="#844E8C"/>
<path d="M0 42.5655H14.5455V45.5911H0V42.5655Z" fill="#844E8C"/>
<path d="M9.90057 33.1461H3.63636V30.1205H14.5455V33.0254H12.5639V33.139C13.2031 33.3852 13.7169 33.7948 14.1051 34.3677C14.4934 34.9359 14.6875 35.6295 14.6875 36.4487C14.6875 37.1778 14.5218 37.8194 14.1903 38.3734C13.8589 38.9273 13.3878 39.3606 12.777 39.6731C12.1662 39.9808 11.4347 40.1371 10.5824 40.1418H3.63636V37.1163H10.0426C10.6866 37.1115 11.1956 36.9387 11.5696 36.5978C11.9437 36.2569 12.1307 35.8 12.1307 35.2271C12.1307 34.8625 12.0478 34.5216 11.8821 34.2043C11.7116 33.8871 11.4607 33.6314 11.1293 33.4373C10.7978 33.2384 10.3883 33.1414 9.90057 33.1461Z" fill="#844E8C"/>
<path d="M14.7585 22.7288C14.7585 23.851 14.5313 24.8169 14.0767 25.6266C13.6174 26.4315 12.9688 27.0518 12.1307 27.4874C11.2879 27.923 10.2912 28.1408 9.14062 28.1408C8.01847 28.1408 7.03362 27.923 6.18608 27.4874C5.33854 27.0518 4.67803 26.4386 4.20455 25.6479C3.73106 24.8524 3.49432 23.9197 3.49432 22.8496C3.49432 22.1299 3.61032 21.4599 3.84233 20.8396C4.0696 20.2146 4.41288 19.6701 4.87216 19.2061C5.33144 18.7374 5.90909 18.3728 6.60511 18.1124C7.2964 17.8519 8.10606 17.7217 9.03409 17.7217H9.86506V26.9334H7.99006V20.5697C7.55445 20.5697 7.16856 20.6644 6.83239 20.8538C6.49621 21.0432 6.23343 21.306 6.04403 21.6422C5.84991 21.9736 5.75284 22.3595 5.75284 22.7999C5.75284 23.2591 5.85938 23.6663 6.07244 24.0215C6.28078 24.3718 6.5625 24.6465 6.91761 24.8453C7.26799 25.0442 7.65862 25.146 8.08949 25.1507H9.87216C10.4119 25.1507 10.8783 25.0513 11.2713 24.8524C11.6643 24.6488 11.9673 24.3624 12.1804 23.993C12.3935 23.6237 12.5 23.1857 12.5 22.6791C12.5 22.3429 12.4527 22.0352 12.358 21.7558C12.2633 21.4765 12.1212 21.2374 11.9318 21.0385C11.7424 20.8396 11.5104 20.6881 11.2358 20.584L11.4205 17.7857C12.0928 17.9277 12.6799 18.2189 13.1818 18.6592C13.679 19.0948 14.0672 19.6583 14.3466 20.3496C14.6212 21.0361 14.7585 21.8292 14.7585 22.7288Z" fill="#844E8C"/>
<path d="M14.7301 13.9788C14.7301 14.4476 14.5644 14.85 14.233 15.1862C13.8968 15.5177 13.4943 15.6834 13.0256 15.6834C12.5616 15.6834 12.1638 15.5177 11.8324 15.1862C11.5009 14.85 11.3352 14.4476 11.3352 13.9788C11.3352 13.5243 11.5009 13.1266 11.8324 12.7857C12.1638 12.4447 12.5616 12.2743 13.0256 12.2743C13.3381 12.2743 13.6245 12.3548 13.8849 12.5158C14.1406 12.672 14.3466 12.878 14.5028 13.1337C14.6544 13.3893 14.7301 13.6711 14.7301 13.9788Z" fill="#844E8C"/>
<path d="M14.7301 8.02181C14.7301 8.49056 14.5644 8.89302 14.233 9.22919C13.8968 9.56063 13.4943 9.72635 13.0256 9.72635C12.5616 9.72635 12.1638 9.56063 11.8324 9.22919C11.5009 8.89302 11.3352 8.49056 11.3352 8.02181C11.3352 7.56726 11.5009 7.16953 11.8324 6.82862C12.1638 6.48772 12.5616 6.31726 13.0256 6.31726C13.3381 6.31726 13.6245 6.39775 13.8849 6.55874C14.1406 6.71499 14.3466 6.92095 14.5028 7.17664C14.6544 7.43232 14.7301 7.71404 14.7301 8.02181Z" fill="#844E8C"/>
<path d="M14.7301 2.06477C14.7301 2.53352 14.5644 2.93599 14.233 3.27216C13.8968 3.6036 13.4943 3.76932 13.0256 3.76932C12.5616 3.76932 12.1638 3.6036 11.8324 3.27216C11.5009 2.93599 11.3352 2.53352 11.3352 2.06477C11.3352 1.61023 11.5009 1.2125 11.8324 0.871593C12.1638 0.530684 12.5616 0.360229 13.0256 0.360229C13.3381 0.360229 13.6245 0.440722 13.8849 0.601707C14.1406 0.757957 14.3466 0.963923 14.5028 1.2196C14.6544 1.47529 14.7301 1.75701 14.7301 2.06477Z" fill="#844E8C"/>
</svg>
