<svg width="134" height="50" viewBox="0 0 134 50" fill="none" xmlns="http://www.w3.org/2000/svg">
<path d="M39.8393 5.99362C39.0209 6.64838 36.9836 6.39447 36.062 6.45616C32.8126 6.67363 29.5678 6.87937 26.3358 7.2913C23.3362 7.67359 17.4321 7.71882 16.6353 11.467C15.9564 14.6601 17.8482 16.6433 20.297 18.3666C20.4941 18.5053 21.7796 19.1655 21.4149 19.1375C19.3521 18.9788 17.4261 18.378 15.3247 18.5337C9.56279 18.9604 5.00205 23.9061 2.59197 28.8124C1.39712 31.2447 1.01162 33.7478 1.01162 36.4442C1.01162 37.3455 0.916859 38.6274 1.26858 39.5021C1.75732 40.7178 3.67542 41.6953 4.73764 42.2517C5.9537 42.8887 7.07887 43.0459 8.43797 43.0741C11.4998 43.1374 14.6705 42.9797 17.6888 42.4572C23.6397 41.4271 29.2842 38.6383 34.5664 35.3391M34.5664 35.3391C37.7675 33.3397 40.8357 31.1529 43.7582 29.0564C52.1342 23.0482 59.5258 15.7753 67.8205 9.69545M34.5664 35.3391C38.2566 31.9968 42.0711 28.8128 45.9938 25.7287C53.0776 20.1593 60.1983 14.5217 67.8205 9.69545M34.5664 35.3391C33.5216 36.2854 32.4867 37.2443 31.4622 38.2174C29.6124 39.9742 27.8747 41.812 25.9246 43.4595C24.6291 44.5539 22.4625 45.6996 21.5176 47.1597C21.1672 47.7013 22.1168 47.2116 22.5712 47.1084C27.8654 45.9064 32.8778 44.0716 37.7404 41.8855M67.8205 9.69545C68.3782 9.28673 68.9399 8.8834 69.5063 8.4862C72.3839 6.46808 75.3508 4.56376 78.3332 2.70444C79.2076 2.15924 81.3143 0.286993 81.0826 1.29111C80.6274 3.26399 76.4605 4.72651 75.0439 5.47969C72.5791 6.79017 70.1759 8.20408 67.8205 9.69545ZM37.7404 41.8855C41.552 40.1721 45.2716 38.2429 48.9628 36.2338M37.7404 41.8855C35.8382 41.8166 36.893 41.6158 38.1305 41.2238C41.9404 40.0174 45.4275 38.0661 48.9628 36.2338M37.7404 41.8855C37.803 41.8879 37.8688 41.89 37.9379 41.892C60.8907 42.5525 83.9078 42.0718 106.869 42.0718C113.861 42.0718 120.917 41.8028 127.902 42.2004C129.468 42.2895 131.009 42.5343 132.579 42.5343M48.9628 36.2338C51.0267 35.1104 53.0817 33.962 55.1391 32.8124L55.5145 32.6026C59.768 30.2259 63.9938 27.803 68.4913 25.9086C72.2307 24.3334 76.0641 22.9703 79.8364 21.4759C82.1368 20.5646 84.3982 19.3351 86.7359 18.5337C89.1922 17.6914 82.3238 21.3055 79.952 22.3625C76.1464 24.0582 72.2158 25.4468 68.3886 27.0907C62.2295 29.7359 56.1386 32.5986 50.1566 35.622C49.7578 35.8236 49.36 36.0279 48.9628 36.2338ZM91.8753 34.9025C91.8753 36.545 91.2624 37.2578 90.3978 38.6028C90.2332 38.8587 89.8247 39.9437 89.7938 40.2217C89.7059 41.0138 88.9201 41.833 88.5862 42.5343C88.0978 43.56 87.927 45.0703 87.0187 45.8878C86.4304 46.4172 86.3449 47.8236 85.8622 48.5474M97.1945 37.2151C96.5093 38.0526 95.8884 39.2804 95.4729 40.273C95.2389 40.8318 94.7738 41.3361 94.6634 41.9434C94.6147 42.2111 94.7387 42.5411 94.5478 42.7657C93.6304 43.845 93.4942 45.3455 93.4942 46.6972" stroke="white" stroke-width="2" stroke-linecap="round"/>
</svg>
