<svg width="566" height="215" viewBox="0 0 566 215" fill="none" xmlns="http://www.w3.org/2000/svg">
<path d="M7.30099 47.63L19.039 1.06435H35.1367L50.8153 31.465H42.2634L72.4467 1.06435H89.2991L77.7288 47.63H59.7026L65.8231 22.6176L68.6738 22.4845L48.3839 43.439H39.6642L28.2616 22.418L31.6154 22.6176L25.3272 47.63H7.30099Z" fill="#B6DC76" fill-opacity="0.5"/>
<path d="M120.329 48.6943C114.237 48.6943 108.955 47.8073 104.483 46.0334C100.067 44.2595 96.6298 41.8203 94.1705 38.716C91.767 35.5672 90.5652 31.9529 90.5652 27.8728C90.5652 23.7485 91.4595 20.001 93.2482 16.6306C95.0927 13.2158 97.6639 10.2666 100.962 7.78311C104.26 5.29961 108.172 3.39263 112.7 2.06219C117.227 0.687396 122.174 0 127.54 0C133.632 0 138.887 0.886963 143.302 2.66089C147.774 4.43482 151.211 6.89614 153.615 10.0449C156.074 13.1492 157.304 16.7414 157.304 20.8215C157.304 24.9459 156.382 28.7155 154.537 32.1303C152.748 35.5007 150.205 38.4277 146.907 40.9112C143.61 43.3947 139.697 45.3238 135.17 46.6986C130.642 48.0291 125.695 48.6943 120.329 48.6943ZM122.006 35.9886C124.466 35.9886 126.618 35.6116 128.462 34.8577C130.363 34.1038 131.983 33.0616 133.325 31.7311C134.666 30.4007 135.673 28.8928 136.343 27.2076C137.014 25.478 137.349 23.6598 137.349 21.7528C137.349 19.9345 136.874 18.3601 135.924 17.0297C135.03 15.6549 133.716 14.5906 131.983 13.8366C130.307 13.0827 128.266 12.7058 125.863 12.7058C123.459 12.7058 121.308 13.0827 119.407 13.8366C117.507 14.5906 115.886 15.6327 114.544 16.9632C113.203 18.2936 112.197 19.8236 111.526 21.5532C110.855 23.2384 110.52 25.0346 110.52 26.9415C110.52 28.7154 110.967 30.2898 111.861 31.6646C112.811 33.0394 114.125 34.1038 115.802 34.8577C117.535 35.6116 119.603 35.9886 122.006 35.9886Z" fill="#B6DC76" fill-opacity="0.5"/>
<path d="M158.365 47.63L170.103 1.06435H196.43C204.199 1.06435 210.208 2.41697 214.456 5.12221C218.704 7.7831 220.828 11.5305 220.828 16.3645C220.828 20.2671 219.598 23.6819 217.139 26.6089C214.735 29.5359 211.298 31.8198 206.826 33.4607C202.41 35.1016 197.184 35.922 191.148 35.922H172.199L182.763 29.3363L178.152 47.63H158.365ZM194.25 47.63L182.176 30.6668H202.55L214.791 47.63H194.25ZM182.26 31.1989L175.301 24.0811H192.154C194.893 24.0811 197.017 23.5489 198.526 22.4845C200.035 21.3758 200.789 19.8458 200.789 17.8945C200.789 16.2093 200.119 15.0119 198.777 14.3023C197.492 13.5484 195.703 13.1714 193.411 13.1714H178.068L188.632 5.85396L182.26 31.1989Z" fill="#B6DC76" fill-opacity="0.5"/>
<path d="M246.326 18.3601H272.485L269.634 29.6689H243.475L246.326 18.3601ZM243.224 35.789H272.652L269.634 47.63H220.838L232.576 1.06435H280.282L277.264 12.9053H249.009L243.224 35.789Z" fill="#B6DC76" fill-opacity="0.5"/>
<path d="M302.388 47.63L314.126 1.06435H340.62C346.824 1.06435 352.162 1.86262 356.634 3.45916C361.105 5.05569 364.543 7.33962 366.947 10.311C369.35 13.2379 370.552 16.7414 370.552 20.8215C370.552 24.9459 369.629 28.6489 367.785 31.9307C365.996 35.2125 363.453 38.0286 360.155 40.379C356.913 42.7295 353.057 44.5256 348.585 45.7673C344.113 47.0091 339.195 47.63 333.829 47.63H302.388ZM325.277 35.3899H334.499C338.021 35.3899 340.955 34.7912 343.303 33.5937C345.706 32.352 347.523 30.7111 348.753 28.6711C349.982 26.5867 350.597 24.2806 350.597 21.7528C350.597 19.9345 350.122 18.4045 349.172 17.1627C348.278 15.921 346.908 14.9675 345.064 14.3023C343.275 13.6371 341.039 13.3045 338.356 13.3045H330.81L325.277 35.3899Z" fill="#B6DC76" fill-opacity="0.5"/>
<path d="M397.144 18.3601H423.303L420.453 29.6689H394.294L397.144 18.3601ZM394.042 35.789H423.471L420.453 47.63H371.656L383.394 1.06435H431.1L428.082 12.9053H399.827L394.042 35.789Z" fill="#B6DC76" fill-opacity="0.5"/>
<path d="M440.814 47.63L449.45 13.2379H432.262L435.364 1.06435H489.526L486.424 13.2379H469.236L460.601 47.63H440.814Z" fill="#B6DC76" fill-opacity="0.5"/>
<path d="M473.608 47.63L511.002 1.06435H530.453L544.371 47.63H524.668L515.194 8.31528H522.908L494.485 47.63H473.608ZM490.88 39.5142L498.761 28.2054H525.758L527.938 39.5142H490.88Z" fill="#B6DC76" fill-opacity="0.5"/>
<path d="M0.928955 130.783L38.3228 84.2172H57.7742L71.6921 130.783H51.9891L42.5149 91.4681H50.2284L21.8058 130.783H0.928955ZM18.2005 122.667L26.0817 111.358H53.0791L55.259 122.667H18.2005Z" fill="#B6DC76" fill-opacity="0.5"/>
<path d="M74.85 130.783L86.5879 84.2172H106.375L94.6368 130.783H74.85Z" fill="#B6DC76" fill-opacity="0.5"/>
<path d="M104.162 130.783L115.9 84.2172H135.687L127.051 118.609H153.545L150.443 130.783H104.162Z" fill="#B6DC76" fill-opacity="0.5"/>
<path d="M179.217 131.847C175.752 131.847 172.426 131.648 169.24 131.248C166.054 130.849 163.147 130.295 160.52 129.585C157.949 128.831 155.713 128.011 153.813 127.124L161.442 115.549C163.622 116.525 165.802 117.345 167.982 118.011C170.218 118.631 172.426 119.097 174.606 119.407C176.841 119.718 179.049 119.873 181.229 119.873C182.962 119.873 184.387 119.762 185.505 119.541C186.679 119.319 187.545 119.008 188.104 118.609C188.719 118.166 189.027 117.678 189.027 117.146C189.027 116.436 188.524 115.86 187.517 115.416C186.511 114.973 185.17 114.574 183.493 114.219C181.872 113.864 180.055 113.509 178.043 113.154C176.087 112.755 174.103 112.267 172.09 111.691C170.078 111.07 168.234 110.294 166.557 109.363C164.936 108.431 163.622 107.256 162.616 105.837C161.61 104.418 161.107 102.688 161.107 100.648C161.107 97.1004 162.281 94.0182 164.628 91.4016C167.032 88.7851 170.441 86.7672 174.857 85.3481C179.329 83.8846 184.639 83.1528 190.787 83.1528C195.147 83.1528 199.199 83.5076 202.944 84.2172C206.745 84.8824 210.015 85.8581 212.754 87.1442L205.627 98.586C203.28 97.433 200.709 96.5682 197.914 95.9917C195.175 95.4151 192.38 95.1269 189.53 95.1269C187.629 95.1269 186.036 95.2821 184.751 95.5925C183.465 95.8586 182.487 96.2356 181.816 96.7234C181.201 97.2112 180.894 97.7212 180.894 98.2534C180.894 98.963 181.397 99.5617 182.403 100.05C183.409 100.493 184.751 100.892 186.427 101.247C188.104 101.557 189.921 101.912 191.877 102.311C193.889 102.666 195.874 103.132 197.83 103.708C199.842 104.24 201.687 104.972 203.364 105.903C205.041 106.79 206.382 107.943 207.388 109.363C208.394 110.737 208.897 112.445 208.897 114.485C208.897 117.944 207.696 120.982 205.292 123.598C202.889 126.171 199.451 128.188 194.979 129.652C190.564 131.115 185.31 131.847 179.217 131.847Z" fill="#B6DC76" fill-opacity="0.5"/>
<path d="M229.777 130.783L267.171 84.2172H286.622L300.54 130.783H280.837L271.363 91.4681H279.076L250.654 130.783H229.777ZM247.048 122.667L254.929 111.358H281.927L284.107 122.667H247.048Z" fill="#B6DC76" fill-opacity="0.5"/>
<path d="M303.698 130.783L315.436 84.2172H346.541C353.528 84.2172 358.782 85.1929 362.304 87.1442C365.825 89.0512 367.586 91.7786 367.586 95.3264C367.586 98.2091 366.524 100.648 364.4 102.644C362.332 104.64 359.453 106.17 355.764 107.234C352.131 108.254 347.939 108.764 343.188 108.764L345.703 105.172C351.684 105.172 356.379 106.125 359.788 108.032C363.254 109.895 364.987 112.534 364.987 115.948C364.987 119.363 363.729 122.179 361.214 124.397C358.754 126.57 355.457 128.188 351.32 129.253C347.184 130.273 342.601 130.783 337.57 130.783H303.698ZM325.916 119.807H338.66C340.616 119.807 342.209 119.452 343.439 118.742C344.725 118.033 345.368 116.968 345.368 115.549C345.368 114.529 344.864 113.775 343.858 113.287C342.908 112.755 341.79 112.489 340.505 112.489H326.419L329.018 102.112H340.421C341.93 102.112 343.16 101.956 344.11 101.646C345.116 101.291 345.843 100.826 346.29 100.249C346.737 99.6282 346.961 98.8965 346.961 98.0538C346.961 97.0782 346.485 96.3686 345.535 95.9251C344.641 95.4373 343.383 95.1934 341.762 95.1934H332.12L325.916 119.807Z" fill="#B6DC76" fill-opacity="0.5"/>
<path d="M401.579 131.847C395.486 131.847 390.204 130.96 385.733 129.186C381.317 127.412 377.879 124.973 375.42 121.869C373.016 118.72 371.815 115.106 371.815 111.026C371.815 106.901 372.709 103.154 374.498 99.7834C376.342 96.3686 378.913 93.4195 382.211 90.936C385.509 88.4525 389.422 86.5455 393.949 85.215C398.477 83.8402 403.423 83.1528 408.789 83.1528C414.882 83.1528 420.136 84.0398 424.552 85.8137C429.023 87.5877 432.461 90.049 434.864 93.1977C437.324 96.3021 438.553 99.8943 438.553 103.974C438.553 108.099 437.631 111.868 435.787 115.283C433.998 118.654 431.455 121.581 428.157 124.064C424.859 126.548 420.946 128.477 416.419 129.851C411.891 131.182 406.945 131.847 401.579 131.847ZM403.256 119.141C405.715 119.141 407.867 118.764 409.711 118.011C411.612 117.257 413.233 116.214 414.574 114.884C415.916 113.554 416.922 112.046 417.593 110.36C418.263 108.631 418.599 106.813 418.599 104.906C418.599 103.087 418.124 101.513 417.173 100.183C416.279 98.8078 414.966 97.7434 413.233 96.9895C411.556 96.2356 409.516 95.8586 407.112 95.8586C404.709 95.8586 402.557 96.2356 400.656 96.9895C398.756 97.7434 397.135 98.7856 395.794 100.116C394.452 101.446 393.446 102.976 392.775 104.706C392.105 106.391 391.769 108.187 391.769 110.094C391.769 111.868 392.216 113.443 393.111 114.817C394.061 116.192 395.374 117.257 397.051 118.011C398.784 118.764 400.852 119.141 403.256 119.141Z" fill="#B6DC76" fill-opacity="0.5"/>
<path d="M469.211 131.847C463.118 131.847 458.032 130.938 453.952 129.12C449.871 127.257 446.965 124.685 445.232 121.403C443.555 118.077 443.276 114.219 444.393 109.828L450.849 84.2172H470.636L464.264 109.562C463.873 111.203 463.733 112.622 463.845 113.82C463.957 115.017 464.32 116.015 464.935 116.813C465.606 117.611 466.5 118.21 467.618 118.609C468.736 118.964 470.077 119.141 471.642 119.141C473.543 119.141 475.164 118.831 476.505 118.21C477.903 117.589 479.048 116.569 479.943 115.15C480.893 113.731 481.648 111.868 482.207 109.562L488.579 84.2172H508.03L501.406 110.494C499.674 117.456 496.124 122.756 490.758 126.392C485.393 130.029 478.21 131.847 469.211 131.847Z" fill="#B6DC76" fill-opacity="0.5"/>
<path d="M517.287 130.783L525.923 96.3908H508.735L511.838 84.2172H566L562.898 96.3908H545.71L537.074 130.783H517.287Z" fill="#B6DC76" fill-opacity="0.5"/>
<path d="M7.30099 213.936L19.039 167.37H35.1367L50.8153 197.771H42.2634L72.4467 167.37H89.2991L77.7288 213.936H59.7026L65.8231 188.923L68.6738 188.79L48.3839 209.745H39.6642L28.2616 188.724L31.6154 188.923L25.3272 213.936H7.30099Z" fill="#B6DC76" fill-opacity="0.5"/>
<path d="M102.387 213.936L107.501 193.513L109.681 202.893L91.9905 167.37H111.861L123.935 191.784H111.442L136.176 167.37H156.046L120.581 202.893L127.288 193.513L122.174 213.936H102.387Z" fill="#B6DC76" fill-opacity="0.5"/>
<path d="M195.265 215C191.8 215 188.474 214.8 185.288 214.401C182.102 214.002 179.195 213.448 176.568 212.738C173.997 211.984 171.761 211.164 169.861 210.277L177.49 198.702C179.67 199.678 181.85 200.498 184.03 201.163C186.266 201.784 188.474 202.25 190.654 202.56C192.889 202.871 195.097 203.026 197.277 203.026C199.01 203.026 200.435 202.915 201.553 202.693C202.727 202.472 203.593 202.161 204.152 201.762C204.767 201.319 205.075 200.831 205.075 200.299C205.075 199.589 204.572 199.012 203.565 198.569C202.559 198.126 201.218 197.726 199.541 197.372C197.92 197.017 196.103 196.662 194.091 196.307C192.135 195.908 190.151 195.42 188.138 194.844C186.126 194.223 184.282 193.447 182.605 192.515C180.984 191.584 179.67 190.409 178.664 188.99C177.658 187.571 177.155 185.841 177.155 183.801C177.155 180.253 178.329 177.171 180.676 174.554C183.08 171.938 186.489 169.92 190.905 168.501C195.377 167.037 200.687 166.306 206.835 166.306C211.195 166.306 215.247 166.66 218.992 167.37C222.793 168.035 226.063 169.011 228.802 170.297L221.675 181.739C219.328 180.586 216.757 179.721 213.962 179.144C211.223 178.568 208.428 178.28 205.578 178.28C203.677 178.28 202.084 178.435 200.799 178.745C199.513 179.011 198.535 179.388 197.864 179.876C197.249 180.364 196.942 180.874 196.942 181.406C196.942 182.116 197.445 182.715 198.451 183.202C199.457 183.646 200.799 184.045 202.475 184.4C204.152 184.71 205.969 185.065 207.925 185.464C209.937 185.819 211.922 186.285 213.878 186.861C215.89 187.393 217.735 188.125 219.412 189.056C221.089 189.943 222.43 191.096 223.436 192.515C224.442 193.89 224.945 195.598 224.945 197.638C224.945 201.097 223.744 204.135 221.34 206.751C218.937 209.323 215.499 211.341 211.027 212.805C206.612 214.268 201.358 215 195.265 215Z" fill="#B6DC76" fill-opacity="0.5"/>
<path d="M238.986 213.936L247.621 179.544H230.434L233.536 167.37H287.698L284.596 179.544H267.408L258.773 213.936H238.986Z" fill="#B6DC76" fill-opacity="0.5"/>
<path d="M309.877 215C303.785 215 298.698 214.091 294.618 212.273C290.537 210.41 287.631 207.838 285.898 204.556C284.221 201.23 283.942 197.372 285.06 192.981L291.516 167.37H311.303L304.93 192.715C304.539 194.356 304.399 195.775 304.511 196.972C304.623 198.17 304.986 199.168 305.601 199.966C306.272 200.764 307.166 201.363 308.284 201.762C309.402 202.117 310.744 202.294 312.309 202.294C314.209 202.294 315.83 201.984 317.172 201.363C318.569 200.742 319.715 199.722 320.609 198.303C321.559 196.884 322.314 195.021 322.873 192.715L329.245 167.37H348.696L342.073 193.646C340.34 200.609 336.791 205.909 331.425 209.545C326.059 213.182 318.876 215 309.877 215Z" fill="#B6DC76" fill-opacity="0.5"/>
<path d="M346.028 213.936L357.766 167.37H384.261C390.465 167.37 395.803 168.168 400.275 169.765C404.746 171.361 408.184 173.645 410.587 176.617C412.991 179.544 414.192 183.047 414.192 187.127C414.192 191.252 413.27 194.955 411.426 198.236C409.637 201.518 407.094 204.334 403.796 206.685C400.554 209.035 396.697 210.831 392.226 212.073C387.754 213.315 382.835 213.936 377.469 213.936H346.028ZM368.917 201.696H378.14C381.662 201.696 384.596 201.097 386.944 199.899C389.347 198.658 391.164 197.017 392.393 194.977C393.623 192.892 394.238 190.586 394.238 188.058C394.238 186.24 393.763 184.71 392.813 183.468C391.918 182.227 390.549 181.273 388.704 180.608C386.916 179.943 384.68 179.61 381.997 179.61H374.451L368.917 201.696Z" fill="#B6DC76" fill-opacity="0.5"/>
<path d="M415.297 213.936L427.035 167.37H446.822L435.084 213.936H415.297Z" fill="#B6DC76" fill-opacity="0.5"/>
<path d="M470.097 184.666H496.256L493.405 195.975H467.247L470.097 184.666ZM466.995 202.095H496.424L493.405 213.936H444.609L456.347 167.37H504.053L501.035 179.211H472.78L466.995 202.095Z" fill="#B6DC76" fill-opacity="0.5"/>
<path d="M524.331 215C520.865 215 517.54 214.8 514.354 214.401C511.168 214.002 508.261 213.448 505.634 212.738C503.063 211.984 500.827 211.164 498.927 210.277L506.556 198.702C508.736 199.678 510.916 200.498 513.096 201.163C515.332 201.784 517.54 202.25 519.72 202.56C521.955 202.871 524.163 203.026 526.343 203.026C528.076 203.026 529.501 202.915 530.619 202.693C531.793 202.472 532.659 202.161 533.218 201.762C533.833 201.319 534.14 200.831 534.14 200.299C534.14 199.589 533.637 199.012 532.631 198.569C531.625 198.126 530.284 197.726 528.607 197.372C526.986 197.017 525.169 196.662 523.157 196.307C521.201 195.908 519.216 195.42 517.204 194.844C515.192 194.223 513.348 193.447 511.671 192.515C510.05 191.584 508.736 190.409 507.73 188.99C506.724 187.571 506.221 185.841 506.221 183.801C506.221 180.253 507.395 177.171 509.742 174.554C512.146 171.938 515.555 169.92 519.971 168.501C524.443 167.037 529.753 166.306 535.901 166.306C540.261 166.306 544.313 166.66 548.058 167.37C551.859 168.035 555.129 169.011 557.868 170.297L550.741 181.739C548.394 180.586 545.823 179.721 543.028 179.144C540.289 178.568 537.494 178.28 534.644 178.28C532.743 178.28 531.15 178.435 529.864 178.745C528.579 179.011 527.601 179.388 526.93 179.876C526.315 180.364 526.008 180.874 526.008 181.406C526.008 182.116 526.511 182.715 527.517 183.202C528.523 183.646 529.864 184.045 531.541 184.4C533.218 184.71 535.035 185.065 536.991 185.464C539.003 185.819 540.988 186.285 542.944 186.861C544.956 187.393 546.801 188.125 548.478 189.056C550.154 189.943 551.496 191.096 552.502 192.515C553.508 193.89 554.011 195.598 554.011 197.638C554.011 201.097 552.809 204.135 550.406 206.751C548.002 209.323 544.565 211.341 540.093 212.805C535.678 214.268 530.423 215 524.331 215Z" fill="#B6DC76" fill-opacity="0.5"/>
</svg>
